<mxfile host="app.diagrams.net" modified="2022-12-25T13:04:59.205Z" agent="5.0 (Windows)" etag="YWAACzMGyb7iq5zd7-jA" version="20.3.6" type="github">
  <diagram id="3FAYzUAJw1p4qOGToEqN" name="Page-1">
    <mxGraphModel dx="868" dy="440" grid="1" gridSize="10" guides="1" tooltips="1" connect="1" arrows="1" fold="1" page="1" pageScale="1" pageWidth="2336" pageHeight="1654" math="0" shadow="0">
      <root>
        <mxCell id="0" />
        <mxCell id="1" parent="0" />
        <mxCell id="1m_I83HTcoRCwd1rOjIo-1" value="&lt;b&gt;BAHNOO&lt;/b&gt;" style="whiteSpace=wrap;html=1;aspect=fixed;" vertex="1" parent="1">
          <mxGeometry x="280" y="160" width="80" height="80" as="geometry" />
        </mxCell>
        <mxCell id="1m_I83HTcoRCwd1rOjIo-2" value="&lt;div&gt;&lt;b&gt;ADN&lt;/b&gt;&lt;/div&gt;" style="whiteSpace=wrap;html=1;aspect=fixed;" vertex="1" parent="1">
          <mxGeometry x="400" y="160" width="80" height="80" as="geometry" />
        </mxCell>
        <mxCell id="1m_I83HTcoRCwd1rOjIo-3" value="&lt;b&gt;BAHNOO&lt;/b&gt;" style="whiteSpace=wrap;html=1;aspect=fixed;" vertex="1" parent="1">
          <mxGeometry x="280" y="260" width="70" height="70" as="geometry" />
        </mxCell>
      </root>
    </mxGraphModel>
  </diagram>
</mxfile>
